<svg width="191" height="61" viewBox="0 0 191 61" fill="none" xmlns="http://www.w3.org/2000/svg">
<circle cx="55.0002" cy="28.1247" r="26" transform="rotate(-0.146781 55.0002 28.1247)" fill="#4BD16F"/>
<ellipse cx="16.508" cy="31.2233" rx="27.5" ry="29" transform="rotate(-0.146781 16.508 31.2233)" fill="white"/>
<path d="M45.0354 2.85017C35.2444 6.37527 27.9726 17.3939 28.0016 28.6939C28.0134 33.2939 27.6157 34.1949 24.1244 37.6039C18.9375 42.7172 16.3521 48.4238 17.8603 51.62C19.3687 54.9161 23.3703 55.5058 30.5654 53.5874C38.26 51.4677 40.56 51.4618 46.0656 53.6477C51.5709 55.7336 61.9696 55.207 66.7632 52.6947C76.0509 47.8709 82.0275 38.7555 82.003 29.1556C81.9909 24.4556 82.3878 23.2546 85.8773 19.1456C89.9648 14.2351 92.9514 9.02744 92.9455 6.72745C92.9437 6.02745 92.3402 4.62899 91.6376 3.63079C89.9317 1.33515 82.7315 1.2536 75.8374 3.57127C71.2415 5.18305 70.7415 5.18433 65.4364 3.19791C58.83 0.714828 51.3298 0.634042 45.0354 2.85017ZM63.8444 6.302C68.0477 7.59124 75.2656 14.5728 76.7766 18.8689C77.7843 21.8663 77.685 22.1666 73.694 25.6768C67.6074 30.8924 66.0092 31.5965 66.0028 29.0965C65.9999 27.9965 65.3976 27.0981 64.5976 27.1001C62.9976 27.1042 58.6222 36.7155 59.5258 38.1132C59.8274 38.7124 62.8284 39.1047 66.1284 39.0963C70.8284 39.0842 72.0276 38.7811 72.0242 37.4811C72.0219 36.5812 71.1196 35.6835 70.0189 35.3863C68.4179 34.9904 68.9161 34.2891 73.1073 30.8784C75.9017 28.6712 78.3976 27.0648 78.5984 27.3643C79.5007 28.262 76.9245 37.5686 74.833 40.874C71.9453 45.6814 65.8558 49.797 59.6594 51.2129C52.8633 52.7303 45.1579 50.65 39.4454 45.7646C35.0359 42.0759 30.9164 34.4864 32.6136 33.3821C33.2126 32.9806 35.7075 30.9742 38.2021 28.8678C43.391 24.5545 43.9908 24.4529 43.9977 27.1529C44.0005 28.2529 44.6028 29.1514 45.4028 29.1493C47.0028 29.1452 51.3782 19.534 50.4746 18.1363C50.1731 17.5371 47.1721 17.1447 43.8721 17.1532C39.2721 17.165 37.9729 17.4683 37.9759 18.6683C37.978 19.4683 38.5798 20.1668 39.3798 20.1647C42.5798 20.1565 41.5844 21.9591 36.2952 26.1726L30.7065 30.587L31.3936 25.5852C32.6688 15.8819 40.7462 7.06118 49.9416 5.23761C54.7393 4.32532 58.24 4.61635 63.8444 6.302ZM88.9473 7.4377C88.9525 9.43769 83.2743 17.9523 81.6755 18.4564C81.3755 18.4571 79.5697 16.1617 77.5622 13.2669C74.0489 8.07586 74.0487 7.97586 76.2466 7.17023C77.4456 6.76716 79.1438 6.06281 79.943 5.76076C80.7422 5.45871 83.1415 5.15256 85.2415 5.14718C88.4412 5.03898 88.942 5.3377 88.9473 7.4377ZM30.0267 38.4887C30.0287 39.2887 31.4351 41.7851 33.0408 43.981C34.7467 46.2767 36.052 48.3733 36.0526 48.5733C36.0543 49.2733 27.2592 51.1959 24.1592 51.2038C21.5593 51.2105 21.0582 50.8118 21.0534 48.9118C21.05 47.6118 22.6418 44.4077 24.6354 41.9026C28.3231 37.0931 30.0205 36.0887 30.0267 38.4887Z" fill="black"/>
<path d="M132.762 13.0255C131.164 13.9296 130.969 15.7301 131.001 28.33C131.042 44.43 130.841 43.9305 138.441 43.911C143.641 43.8977 145.038 42.5941 145.025 37.6941C145.017 34.5942 144.615 33.8952 143.115 33.899C141.615 33.9029 141.017 34.7044 140.824 37.1049C140.631 39.9054 140.132 40.4067 138.032 40.4121L135.532 40.4185L135.2 28.1193L134.869 15.9201L137.969 15.9122C140.669 15.9052 140.97 16.2045 140.977 18.9045C140.983 21.2044 141.385 21.9034 142.985 21.8993C144.685 21.895 144.983 21.1942 144.974 17.8942C144.967 14.9942 144.464 13.6955 143.062 12.8991C140.558 11.6055 134.958 11.6198 132.762 13.0255Z" fill="black"/>
<path d="M150 27.8814C150.039 43.1813 150.141 43.8811 152.041 43.8762C153.941 43.8713 154.039 43.1711 154.112 32.5709L154.183 21.3706L156.203 29.0655C157.92 35.7611 158.523 36.8596 160.423 36.8547C162.223 36.8501 162.92 35.7483 164.703 29.0437L166.783 21.3384L166.912 32.5381C167.039 43.1378 167.141 43.8375 169.041 43.8326C170.941 43.8278 171.039 43.1275 171 27.8276L170.959 11.8276L168.559 11.8338C166.459 11.8392 165.861 12.6407 164.473 17.5443C160.014 33.2557 160.613 33.0542 156.98 20.0635C154.961 12.7686 154.459 11.8699 152.359 11.8753L149.959 11.8814L150 27.8814Z" fill="black"/>
<path d="M177.562 13.1107C176.165 14.1143 175.969 15.6148 176.183 21.3143L176.501 28.3135L180.803 29.2024L185.006 30.1917L185.018 34.9917C185.03 39.4917 184.831 39.7922 182.531 39.7981C180.531 39.8032 180.029 39.3045 180.024 37.3045C180.02 35.5045 179.518 34.8058 178.018 34.8096C176.418 34.8137 176.02 35.5147 176.026 38.1147C176.037 42.5147 177.541 43.8109 183.041 43.7968C185.541 43.7904 188.139 43.2837 188.838 42.5819C189.536 41.8801 190.027 38.5788 190.018 34.7789C189.998 27.0789 189.095 25.7812 183.795 25.7948L179.995 25.8045L179.982 20.8045C179.97 16.1045 180.169 15.804 182.469 15.7981C184.469 15.793 184.97 16.2917 184.975 18.2917C184.981 20.2917 185.482 20.7904 187.482 20.7853C189.582 20.7799 189.981 20.2789 189.974 17.8789C189.97 16.2789 189.265 14.1807 188.363 13.383C186.458 11.4879 180.058 11.3043 177.562 13.1107Z" fill="black"/>
<path d="M112.006 30.3787C112.026 38.2787 112.436 42.0776 113.338 42.7753C114.039 43.3735 117.141 43.8656 120.341 43.8574L126.041 43.8428L126.009 31.3428C125.977 18.9429 125.977 18.8429 123.777 19.1485C121.578 19.4541 121.48 19.9544 121.204 29.6551C120.93 39.8559 120.931 39.9559 118.531 39.962C116.031 39.9684 116.031 39.9684 116.004 29.4685C115.979 19.6685 115.877 18.9688 113.977 18.9736C112.077 18.9785 111.979 19.6787 112.006 30.3787Z" fill="black"/>
</svg>
